<?xml version="1.0" standalone="no"?>
<!DOCTYPE svg PUBLIC "-//W3C//DTD SVG 20010904//EN"
 "http://www.w3.org/TR/2001/REC-SVG-20010904/DTD/svg10.dtd">
<svg version="1.0" xmlns="http://www.w3.org/2000/svg"
 width="1024.000000pt" height="1024.000000pt" viewBox="0 0 1024.000000 1024.000000"
 preserveAspectRatio="xMidYMid meet">
<metadata>
Created by potrace 1.14, written by Peter Selinger 2001-2017
</metadata>
<g transform="translate(0.000000,1024.000000) scale(0.100000,-0.100000)"
fill="#000000" stroke="none">
<path d="M0 5425 c0 -2648 3 -4815 8 -4815 8 0 6 -1 165 84 127 68 227 104
314 112 l63 7 39 -39 c46 -47 55 -73 81 -264 23 -162 40 -260 70 -399 11 -52
20 -98 20 -103 0 -4 207 -8 460 -8 l460 0 -28 53 c-47 87 -101 235 -181 492
-5 17 -14 93 -21 170 -6 77 -16 170 -21 207 -20 149 1 229 85 312 87 87 229
181 347 229 24 11 60 26 79 35 19 8 69 19 110 23 41 4 92 13 113 18 20 6 52
15 70 20 17 5 48 14 67 20 19 6 36 11 37 11 2 0 3 -21 3 -46 0 -127 22 -236
71 -351 27 -63 49 -126 49 -142 0 -15 13 -48 30 -72 16 -24 30 -47 30 -52 0
-4 9 -26 19 -50 24 -52 125 -283 156 -357 46 -110 65 -164 71 -202 5 -26 12
-38 23 -38 40 -1 77 -67 113 -201 l21 -79 399 0 c219 0 398 3 398 8 0 4 -23
37 -51 75 -28 37 -59 89 -68 115 -17 47 -17 112 -1 112 15 0 95 -90 115 -129
32 -62 56 -93 103 -138 l44 -43 112 0 c75 0 106 3 96 10 -8 5 -24 10 -36 10
-23 0 -243 215 -259 254 -6 14 -23 35 -39 47 -29 22 -62 86 -51 97 3 3 21 0
41 -7 20 -7 38 -10 41 -7 3 3 -8 21 -26 41 -37 42 -41 61 -8 43 12 -6 40 -14
61 -17 34 -5 41 -11 52 -44 15 -43 1 -89 -36 -120 -29 -25 -22 -37 40 -70 46
-24 121 -80 166 -124 26 -26 34 -14 28 41 -4 35 -3 56 5 60 6 4 11 18 11 32 0
38 23 38 62 2 64 -59 64 -69 6 -114 -28 -21 -54 -41 -58 -44 -4 -3 -10 -15
-14 -27 -5 -16 -2 -23 14 -28 11 -3 20 -13 20 -21 0 -11 16 -14 69 -14 39 0
73 5 76 10 8 13 45 13 45 0 0 -6 33 -10 79 -10 58 0 82 4 91 15 12 14 15 14
30 0 19 -17 160 -22 160 -6 0 5 -12 18 -27 29 -38 25 -195 100 -230 108 -15 4
-39 18 -52 31 -13 12 -28 23 -33 23 -4 0 -30 15 -57 33 -55 37 -91 58 -176
105 -32 18 -77 46 -99 63 -22 16 -46 29 -53 29 -7 0 -13 7 -13 15 0 8 -4 15
-8 15 -5 0 -21 13 -38 28 -16 16 -51 44 -79 62 -27 19 -84 68 -124 109 l-75
76 -7 -33 c-8 -39 -17 -51 -23 -31 -15 47 -48 142 -66 192 -12 32 -20 61 -17
63 3 3 25 -16 49 -42 142 -158 287 -292 353 -329 39 -21 114 -73 169 -114 165
-127 211 -160 221 -161 6 0 40 -16 75 -35 110 -60 171 -88 302 -140 52 -21 69
-33 78 -56 15 -35 43 -35 48 0 4 23 6 23 69 17 36 -4 75 -12 87 -19 12 -6 41
-13 66 -14 25 -2 69 -6 98 -9 42 -5 57 -2 71 10 11 10 42 19 72 21 76 6 237
43 284 66 22 10 48 19 58 19 9 0 17 5 17 10 0 6 4 10 10 10 10 0 76 29 210 92
82 39 142 67 223 103 21 9 43 27 49 41 7 15 20 24 35 24 26 0 56 15 93 46 14
11 49 36 77 54 29 18 55 41 59 52 4 13 12 16 29 12 20 -5 26 2 51 51 19 37 40
63 59 72 17 9 71 45 120 81 50 35 101 68 115 74 14 5 38 23 53 41 l28 32 -6
-35 c-13 -69 -46 -112 -120 -157 -39 -23 -75 -47 -82 -53 -7 -5 -15 -10 -18
-10 -9 0 -137 -109 -175 -149 -19 -21 -67 -56 -106 -79 -39 -22 -76 -48 -84
-56 -7 -9 -18 -16 -25 -16 -7 0 -19 -7 -26 -17 -8 -9 -36 -27 -64 -40 -27 -12
-57 -27 -65 -32 -26 -16 -127 -61 -136 -61 -23 0 -396 -195 -405 -211 -9 -18
-5 -19 50 -19 65 0 87 9 192 81 32 21 64 39 72 39 18 0 47 -32 47 -53 0 -20
-54 -47 -96 -47 -18 0 -35 -4 -39 -9 -3 -6 75 -10 205 -10 119 0 212 4 215 10
4 5 33 27 65 49 32 22 103 85 158 140 63 62 108 100 121 100 12 0 21 -3 21 -6
0 -13 -21 -43 -57 -80 -79 -81 -133 -149 -133 -167 0 -13 -5 -17 -16 -13 -14
5 -44 -14 -44 -28 0 -3 49 -6 109 -6 l109 0 6 31 c3 17 6 41 6 52 0 31 48 122
78 148 29 26 78 59 87 59 8 0 6 -44 -4 -76 -5 -16 -15 -49 -22 -74 -14 -50
-32 -83 -63 -117 l-19 -23 365 0 365 0 13 48 c11 41 26 86 63 185 16 44 47 60
102 51 34 -5 45 -10 41 -21 -3 -8 2 -16 12 -20 9 -3 52 -32 95 -64 42 -33 80
-59 85 -59 15 -1 52 -39 52 -54 0 -23 -10 -20 -55 19 -22 19 -45 35 -51 35 -6
0 -19 9 -29 20 -10 11 -26 22 -37 26 -11 3 -29 15 -39 25 -10 10 -33 19 -49
19 -27 0 -30 2 -24 25 5 22 3 25 -18 25 -35 0 -50 -21 -97 -130 -52 -121 -52
-130 -3 -130 38 0 40 3 93 84 33 52 61 85 72 85 25 1 22 -38 -6 -68 -13 -15
-34 -43 -46 -63 l-23 -38 26 0 c16 0 26 6 26 15 0 8 9 15 21 15 13 0 25 11 34
33 12 30 17 33 45 29 45 -6 54 -32 23 -62 -24 -23 -24 -25 -7 -29 11 -2 27 7
39 23 18 22 27 26 49 20 20 -5 25 -11 21 -25 -6 -17 -1 -19 38 -19 27 0 47 5
50 13 3 9 9 9 29 -1 14 -8 36 -12 49 -10 23 3 23 4 -8 21 -25 13 -33 24 -33
46 0 42 22 56 58 37 17 -9 37 -23 47 -32 9 -9 18 -14 21 -12 2 3 -16 26 -41
52 -53 54 -53 51 5 163 21 40 35 73 30 73 -12 0 -24 -19 -80 -125 -60 -114
-67 -125 -86 -125 -15 0 -95 59 -189 140 -33 28 -72 59 -87 67 -45 27 -52 52
-28 100 11 23 20 47 20 53 0 5 4 18 8 28 5 9 19 40 32 67 13 28 37 69 52 92
15 23 28 45 28 48 0 7 60 95 71 105 3 3 21 28 39 55 53 78 148 203 158 207 10
4 63 83 79 118 30 66 35 163 14 285 -8 44 -14 94 -15 110 l-1 30 75 -1 c42 0
112 -10 160 -22 47 -12 121 -28 165 -37 123 -24 208 -45 227 -55 10 -6 26 -10
36 -10 10 0 22 -4 28 -8 5 -4 27 -14 49 -21 64 -22 113 -58 134 -98 11 -21 40
-63 66 -92 26 -30 51 -65 56 -78 24 -65 17 -218 -18 -343 -8 -30 -18 -68 -23
-85 -15 -54 -60 -209 -81 -280 -36 -119 -42 -136 -72 -205 -9 -19 -23 -55 -33
-80 -10 -25 -35 -78 -55 -117 l-38 -73 438 0 437 0 23 117 c12 65 26 138 31
163 30 157 126 504 166 598 l14 34 92 -8 c51 -3 105 -13 119 -20 15 -7 75 -29
135 -49 59 -20 113 -39 118 -44 6 -4 19 -11 29 -14 16 -6 17 223 17 4728 l0
4735 -5120 0 -5120 0 0 -4815z m5405 3695 c30 -12 55 -34 55 -49 0 -20 -48
-11 -71 14 -17 18 -35 25 -64 26 -32 0 -36 2 -20 9 28 12 69 12 100 0z m59
-262 c48 -42 56 -47 38 -21 -43 60 -16 73 45 21 28 -25 35 -28 29 -13 -20 48
-20 57 0 52 10 -3 33 -8 51 -12 18 -4 55 -17 83 -31 27 -13 54 -24 60 -24 9 0
66 -23 102 -41 10 -5 25 -9 35 -9 9 0 94 -38 189 -85 238 -117 461 -283 529
-395 19 -31 50 -76 69 -100 20 -25 36 -50 36 -56 0 -6 9 -19 20 -29 11 -10 38
-52 61 -94 22 -42 56 -95 75 -118 19 -23 34 -50 34 -60 0 -10 8 -32 19 -49 25
-40 37 -79 22 -70 -17 11 -13 -10 5 -25 9 -8 28 -31 41 -52 19 -30 22 -42 13
-52 -7 -8 -9 -23 -5 -34 4 -13 0 -23 -11 -29 -16 -9 -15 -12 4 -40 12 -16 22
-34 22 -39 0 -6 9 -18 20 -28 24 -22 26 -41 4 -49 -13 -5 -13 -9 6 -33 15 -20
17 -28 8 -34 -9 -6 -9 -13 0 -33 6 -14 16 -26 22 -26 5 0 10 -7 10 -15 0 -11
-7 -14 -25 -9 -14 3 -25 3 -25 0 0 -13 68 -105 73 -100 6 6 2 -23 -9 -69 -4
-18 1 -44 15 -78 20 -47 21 -52 6 -81 -20 -41 -19 -48 5 -48 18 0 19 -5 13
-45 -3 -26 -1 -50 5 -57 6 -7 13 -31 17 -53 4 -22 13 -45 21 -51 9 -7 16 -40
19 -90 2 -43 9 -113 14 -154 6 -41 10 -112 11 -158 l0 -82 -47 -46 c-27 -25
-61 -53 -78 -61 -16 -9 -38 -23 -48 -32 -17 -15 -20 -14 -33 4 -8 10 -14 31
-14 46 0 15 -4 31 -10 34 -5 3 -10 16 -10 27 0 63 -48 143 -144 242 -36 37
-66 69 -66 70 0 2 12 1 28 -1 l27 -5 -25 21 c-30 25 -40 26 -40 6 0 -17 -9
-19 -29 -6 -12 8 -12 12 -2 25 10 12 9 17 -9 26 -12 6 -29 9 -37 6 -9 -4 -21
-2 -28 4 -9 7 -27 7 -56 1 -24 -6 -98 -12 -164 -15 -66 -2 -133 -9 -150 -16
-17 -6 -45 -8 -65 -5 -19 4 -82 7 -140 6 -58 0 -139 4 -180 8 -41 4 -113 4
-160 -1 -181 -17 -912 -10 -1240 13 -229 16 -456 14 -595 -5 -160 -22 -218
-22 -213 1 4 19 35 31 91 32 20 1 37 5 37 10 0 22 -37 33 -136 42 -135 13
-229 -5 -268 -52 -14 -16 -29 -29 -34 -29 -10 0 -22 -23 -22 -40 0 -5 7 -16
16 -25 15 -15 12 -21 -44 -78 -59 -62 -103 -140 -116 -207 -14 -69 -15 -70
-49 -64 -68 12 -118 37 -133 66 -8 15 -23 28 -33 28 -10 0 -28 8 -40 18 -20
17 -20 19 -5 117 8 55 19 132 24 170 12 92 48 226 66 246 8 8 14 21 14 27 0
16 38 81 66 115 13 16 24 35 24 43 0 16 -26 19 -35 4 -3 -5 -11 -10 -16 -10
-10 0 -7 48 8 124 3 19 2 26 -6 22 -16 -10 -14 16 4 40 16 23 11 36 -11 27
-17 -6 -18 11 -2 36 6 10 8 26 4 36 -6 17 -8 16 -31 -5 -21 -20 -25 -21 -25
-7 0 10 4 25 9 35 5 9 16 35 26 57 9 22 28 57 42 78 31 45 24 58 -18 33 -34
-20 -45 -17 -31 11 6 10 16 33 23 51 6 18 25 45 40 60 25 23 28 32 23 64 -6
32 -2 41 24 67 21 21 28 37 25 54 -3 16 4 33 26 56 27 29 41 55 47 88 1 7 9
20 18 29 9 8 16 26 16 39 0 14 13 34 31 49 25 21 29 31 24 54 -5 23 0 32 24
50 17 12 56 55 87 94 98 125 300 318 394 378 47 29 108 68 135 85 69 44 251
126 283 127 15 1 50 -2 78 -6 40 -6 53 -4 63 8 12 14 17 13 47 -11 33 -25 35
-25 48 -8 7 10 18 15 25 11 6 -4 18 -2 26 4 12 10 20 6 45 -20 16 -18 30 -36
30 -41 0 -5 2 -9 4 -9 2 0 11 -3 19 -6 21 -8 10 33 -15 60 -25 28 -23 46 7 46
14 0 25 -4 25 -10 0 -5 6 -10 14 -10 8 0 29 -14 46 -31 17 -17 34 -29 37 -25
4 3 1 12 -5 18 -7 7 -12 20 -12 30 0 15 4 16 26 8 14 -6 30 -7 36 -4 5 3 25
-2 44 -12 33 -18 34 -18 48 1 9 11 16 28 16 38 0 25 18 21 22 -5 2 -16 13 -26
35 -33 18 -6 39 -20 48 -30 8 -11 15 -15 15 -9 0 6 -9 21 -20 34 -17 20 -20
51 -5 68 7 8 57 -12 62 -24 7 -19 33 -18 33 1 0 8 -3 15 -7 15 -14 1 -107 89
-101 95 3 4 30 -6 59 -21 30 -15 82 -35 117 -45 35 -10 70 -23 77 -29 8 -7 22
-10 32 -8 15 3 14 8 -13 33 -48 47 -55 87 -10 63 11 -6 37 -24 57 -39 29 -23
38 -26 42 -15 4 9 1 13 -6 10 -8 -2 -13 8 -14 31 -1 20 3 35 9 35 6 0 39 -24
72 -52z m-219 -8 c3 -5 1 -10 -4 -10 -6 0 -11 5 -11 10 0 6 2 10 4 10 3 0 8
-4 11 -10z m-2165 -1494 c0 -3 -4 -8 -10 -11 -5 -3 -10 -1 -10 4 0 6 5 11 10
11 6 0 10 -2 10 -4z m4080 -331 c10 -12 10 -15 -4 -15 -9 0 -16 7 -16 15 0 8
2 15 4 15 2 0 9 -7 16 -15z m-643 -557 c-21 -7 -32 -7 -40 1 -8 8 0 11 29 10
39 -1 39 -1 11 -11z m-442 -23 c34 -12 36 -14 14 -15 -46 0 -119 12 -119 21 0
14 61 10 105 -6z m-1985 -9 l-45 -12 67 -29 c37 -16 66 -33 65 -39 -1 -5 15
-14 36 -19 20 -5 37 -13 37 -19 0 -5 -4 -7 -9 -3 -5 3 -29 -1 -53 -10 -24 -8
-52 -15 -63 -15 -11 0 -54 -7 -95 -16 -192 -42 -332 -101 -338 -144 -4 -23 -4
-23 45 5 26 15 66 37 88 48 22 11 48 23 57 28 10 5 27 9 37 9 11 0 22 4 25 9
16 26 220 36 313 16 102 -23 138 -39 208 -95 54 -42 115 -80 130 -80 11 0 5
37 -10 56 -19 25 -19 44 0 44 8 0 15 -6 15 -12 0 -8 7 -5 15 6 13 18 18 18 42
6 16 -8 31 -16 35 -17 4 -2 7 12 6 32 -2 51 6 51 35 -2 22 -42 26 -65 32 -185
l8 -138 -51 0 c-47 0 -52 -2 -58 -25 -9 -35 0 -51 32 -59 21 -6 32 -3 41 10
23 31 27 5 6 -38 -11 -24 -30 -73 -42 -110 -51 -157 -227 -379 -346 -437 -108
-51 -124 -54 -350 -54 -168 0 -236 6 -260 22 -5 4 -28 13 -50 20 -61 19 -152
89 -213 161 -73 88 -74 89 -118 156 -117 175 -146 330 -104 556 36 191 66 241
178 294 73 35 87 40 142 53 25 5 59 13 75 17 47 11 197 21 345 21 122 1 131 0
90 -11z m2492 -31 c156 -36 322 -127 359 -197 15 -27 34 -109 50 -205 17 -112
-1 -277 -41 -380 -42 -106 -131 -233 -218 -314 -151 -138 -333 -198 -572 -186
-231 12 -305 36 -404 133 -102 99 -266 352 -266 409 0 11 7 31 16 43 15 22 15
24 -3 28 -10 3 -25 15 -33 27 -12 20 -12 21 3 8 20 -16 64 -2 93 30 16 18 16
20 -2 40 -18 20 -37 21 -90 4 -18 -5 -22 -2 -27 20 -7 41 -2 132 13 200 l13
60 15 -32 c9 -18 20 -33 26 -33 12 0 56 -40 56 -52 0 -4 -6 -8 -14 -8 -8 0
-16 -7 -20 -15 -3 -10 1 -15 13 -15 10 0 24 -7 31 -15 18 -22 33 -7 26 27 -4
23 1 37 22 64 15 19 31 34 35 34 5 0 29 15 55 32 59 41 90 58 108 58 8 0 26 7
39 16 14 9 34 14 45 11 11 -3 23 -1 26 4 7 12 24 12 24 -1 0 -5 -19 -18 -43
-29 -87 -40 -227 -161 -227 -196 0 -18 31 -20 48 -3 10 10 15 10 21 -1 6 -9
16 -11 32 -6 l24 8 -27 9 c-23 8 -26 13 -18 28 9 17 87 70 102 70 3 0 8 -13
11 -29 4 -17 19 -44 34 -61 28 -32 29 -32 133 -33 124 -2 179 12 198 51 6 14
12 31 12 37 0 6 5 16 12 23 9 9 16 8 30 -5 10 -9 18 -20 18 -26 0 -18 41 -67
57 -67 8 0 27 -9 43 -20 16 -11 42 -19 62 -18 19 1 40 -2 46 -6 7 -4 17 -4 22
-1 15 9 -58 88 -121 131 -105 72 -219 111 -351 122 -74 6 -83 9 -83 27 0 16
10 22 49 29 62 12 214 -6 293 -35 53 -20 134 -76 173 -120 19 -20 70 -34 70
-18 0 61 -191 177 -327 199 -69 12 -173 42 -173 51 0 4 8 9 18 12 14 3 13 6
-8 14 -24 10 -24 11 15 18 22 4 56 17 75 28 19 11 55 24 80 27 84 13 257 10
322 -5z m-1161 -11 c42 -5 46 -7 41 -30 -4 -20 -10 -24 -43 -24 -21 0 -49 -4
-62 -9 -15 -6 -89 -6 -196 0 -177 11 -198 8 -281 -28 -19 -9 -48 -25 -63 -35
-32 -23 -48 -17 -23 7 21 21 20 27 -5 59 -17 21 -27 26 -46 21 -32 -8 -47 3
-29 20 28 28 517 41 707 19z m-168 -129 c26 -8 53 -18 60 -22 7 -4 18 -8 25
-9 20 -3 62 -33 62 -44 0 -6 -9 -10 -20 -10 -11 0 -20 -7 -20 -15 0 -8 5 -15
11 -15 5 0 8 -4 4 -9 -3 -5 -1 -12 5 -16 5 -3 10 -16 10 -28 -1 -19 -2 -20
-13 -6 -17 22 -111 64 -175 78 -67 14 -215 14 -267 0 -22 -6 -58 -24 -79 -40
-22 -16 -41 -27 -44 -25 -2 3 -1 18 3 35 12 57 128 129 230 145 48 7 156 -3
208 -19z m-673 -29 c0 -3 -4 -8 -10 -11 -5 -3 -10 -1 -10 4 0 6 5 11 10 11 6
0 10 -2 10 -4z m-30 -30 c0 -3 -4 -8 -10 -11 -5 -3 -10 -1 -10 4 0 6 5 11 10
11 6 0 10 -2 10 -4z m57 -18 c-3 -8 -6 -5 -6 6 -1 11 2 17 5 13 3 -3 4 -12 1
-19z m-1902 -6 c17 -10 54 -41 84 -68 l54 -50 -17 -99 c-21 -125 -27 -385 -10
-392 24 -9 24 -48 -2 -97 l-25 -48 20 -22 c16 -17 22 -40 26 -92 5 -69 26
-251 45 -377 5 -37 8 -103 6 -145 -2 -74 -1 -78 26 -104 28 -26 29 -28 26
-129 -3 -112 -15 -133 -44 -77 -19 36 -74 205 -74 226 0 11 -17 45 -72 144
-13 23 -14 36 -6 53 8 19 4 35 -23 90 -31 63 -33 77 -41 209 -4 77 -13 150
-20 161 -19 34 -30 86 -38 185 -4 52 -15 144 -24 203 -12 74 -16 150 -14 240
3 118 6 136 26 170 27 42 51 47 97 19z m4820 -22 c25 -9 55 -61 55 -94 0 -8
-16 -34 -36 -58 -20 -23 -52 -76 -71 -117 l-34 -75 12 -79 c6 -43 9 -98 6
-121 -7 -49 1 -116 14 -116 5 0 9 33 9 74 0 76 15 169 48 291 32 117 43 96 37
-77 -8 -206 -27 -314 -68 -386 -14 -24 -22 -66 -29 -155 -12 -170 -40 -287
-68 -287 -5 0 -7 -14 -3 -31 3 -16 1 -40 -5 -52 -5 -12 -20 -80 -32 -152 -12
-71 -28 -143 -35 -160 -7 -16 -16 -45 -20 -64 -7 -34 -37 -96 -56 -115 -5 -6
-9 3 -9 24 0 55 23 200 32 200 4 0 8 -9 8 -20 0 -11 4 -20 8 -20 4 0 8 39 8
88 1 48 8 110 17 139 12 41 13 59 4 88 -8 26 -7 62 1 138 22 179 27 211 45
246 14 28 17 60 17 155 -1 67 5 175 13 241 13 104 13 121 0 131 -18 15 -53
110 -53 145 0 36 62 169 91 195 22 20 43 31 61 33 4 1 18 -3 33 -9z m-4552
-47 c58 -79 172 -183 200 -183 24 0 25 -3 30 -82 7 -107 20 -167 54 -237 66
-138 207 -318 297 -380 60 -42 115 -71 131 -71 9 0 23 -4 33 -9 43 -22 125
-31 282 -31 94 0 170 -4 170 -9 0 -15 -340 -20 -385 -5 -45 15 -75 18 -75 6 0
-15 108 -33 235 -39 298 -13 481 49 613 209 14 18 29 35 32 38 12 11 107 148
138 200 67 109 101 214 107 328 2 37 9 68 14 70 14 5 14 32 1 32 -30 0 7 105
49 137 55 42 107 57 201 57 87 1 100 -2 161 -32 88 -42 103 -66 101 -161 -1
-41 5 -113 12 -161 21 -124 105 -285 233 -445 5 -5 19 -26 32 -45 34 -51 118
-126 181 -164 52 -30 88 -41 226 -65 77 -14 227 -15 219 -1 -3 6 -25 10 -47
10 -71 0 -31 15 60 22 199 17 270 37 367 102 55 37 88 64 166 138 71 69 167
214 191 291 5 18 17 83 27 146 l17 115 41 13 c51 17 104 65 126 114 20 43 44
66 56 53 9 -10 37 -144 46 -221 3 -28 1 -72 -5 -98 -6 -27 -7 -53 -1 -62 5
-10 4 -24 -3 -37 -7 -13 -9 -50 -6 -91 7 -101 -23 -245 -51 -245 -7 0 -9 -10
-7 -25 3 -14 1 -25 -4 -25 -5 0 -8 -17 -7 -37 4 -45 -9 -103 -22 -103 -5 0 -9
5 -9 10 0 6 -5 10 -10 10 -6 0 -8 -25 -4 -69 5 -46 3 -70 -5 -75 -7 -5 -11 1
-11 13 0 12 -7 21 -15 21 -12 0 -15 -14 -15 -64 0 -36 -4 -68 -10 -71 -5 -3
-10 -15 -10 -26 0 -10 -6 -19 -13 -19 -11 0 -13 -18 -9 -80 4 -78 -1 -93 -26
-68 -9 9 -12 4 -12 -26 0 -29 -3 -37 -14 -33 -17 7 -19 0 -36 -88 -12 -64 -44
-122 -71 -130 -20 -7 -32 -63 -23 -100 6 -25 5 -26 -14 -16 -11 6 -29 22 -40
36 -11 14 -22 25 -24 25 -3 0 -3 -25 0 -55 5 -63 -10 -84 -60 -85 -26 0 -28
-3 -28 -42 l0 -43 -16 33 c-9 17 -19 32 -23 32 -3 0 -16 -15 -28 -32 -21 -29
-21 -32 -5 -44 15 -11 15 -14 1 -31 -9 -10 -20 -31 -24 -48 l-8 -30 -7 26 c-4
14 -13 36 -20 49 -12 23 -13 23 -20 5 -4 -11 -4 -41 0 -68 4 -26 3 -47 -2 -47
-4 0 -8 -15 -8 -34 0 -19 -3 -41 -6 -50 -10 -26 -25 -18 -23 12 4 48 -1 70
-15 75 -12 5 -14 -3 -11 -40 2 -25 -2 -55 -8 -67 -7 -11 -13 -23 -14 -25 -1
-1 -14 9 -30 23 -15 14 -35 26 -43 26 -10 0 -11 -3 -4 -8 11 -7 44 -65 44 -77
0 -3 -9 -5 -20 -5 -12 0 -25 10 -32 25 -12 27 -24 32 -31 13 -7 -16 -27 9 -26
32 0 10 3 9 10 -5 8 -18 9 -17 5 5 -2 14 -8 35 -11 48 -6 16 -3 22 9 22 20 0
21 36 1 44 -10 4 -15 -1 -16 -17 0 -12 -3 -16 -6 -9 -2 6 -11 12 -19 12 -8 0
-22 17 -31 37 -8 21 -28 51 -44 67 -16 17 -29 34 -29 40 0 23 -57 66 -116 87
-35 13 -64 29 -64 36 0 7 -4 13 -10 13 -15 0 -12 -16 6 -34 14 -15 13 -16 -10
-16 -14 0 -28 5 -31 10 -4 6 -12 4 -21 -5 -19 -19 -34 -19 -34 -1 0 9 -7 12
-19 9 -11 -3 -24 3 -33 15 -18 26 -60 37 -86 23 -16 -9 -21 -7 -25 8 -2 11
-17 22 -34 25 -18 4 -44 25 -67 51 -20 25 -46 45 -56 45 -11 0 -20 5 -20 10 0
16 -68 80 -85 80 -8 0 -15 9 -15 20 0 21 15 27 25 10 11 -18 35 -11 45 13 5
12 18 36 29 52 12 17 21 33 21 36 0 4 -38 26 -85 49 -71 35 -93 42 -125 37
-46 -6 -110 -60 -110 -92 0 -12 -4 -25 -8 -30 -4 -6 -14 -28 -21 -50 -34 -105
-94 -145 -217 -145 -69 0 -121 21 -161 66 -27 30 -58 125 -49 150 6 15 12 8
32 -32 48 -97 126 -165 186 -163 68 2 138 55 177 135 13 27 29 61 37 76 24 46
15 43 -42 -15 -63 -63 -78 -70 -68 -31 6 25 5 26 -27 19 -55 -11 -69 -16 -69
-25 0 -14 -103 1 -122 17 -9 8 -22 12 -27 8 -6 -3 -14 1 -17 9 -3 8 -13 18
-22 21 -10 2 -26 18 -36 34 -27 40 -65 60 -133 72 -50 8 -65 6 -110 -12 -29
-12 -53 -27 -53 -33 0 -7 -7 -21 -15 -32 -14 -18 -16 -18 -26 -1 -15 26 -29
21 -29 -11 0 -20 11 -38 35 -60 19 -18 39 -32 45 -32 5 0 10 -4 10 -9 0 -11
61 -37 78 -33 6 2 12 0 12 -3 0 -10 -28 -35 -39 -35 -6 0 -11 -4 -11 -10 0 -5
-7 -7 -15 -4 -9 4 -15 0 -15 -10 0 -9 -5 -16 -11 -16 -7 0 -8 7 -4 18 11 30
10 36 -7 39 -11 3 -20 -7 -28 -31 -11 -35 -63 -96 -80 -96 -5 0 -12 -9 -15
-20 -4 -11 -10 -18 -15 -15 -4 2 -10 -8 -13 -24 -3 -16 -13 -36 -22 -45 -9 -9
-14 -20 -10 -25 3 -5 1 -12 -5 -16 -6 -4 -10 5 -10 19 0 33 -10 33 -49 -1 -19
-17 -31 -38 -32 -53 l0 -25 -10 25 c-12 30 -6 59 21 90 11 13 20 28 20 34 0 6
-5 3 -11 -7 -5 -9 -16 -17 -24 -17 -7 0 -16 -6 -19 -12 -3 -7 -2 1 1 17 l6 30
-24 -25 c-14 -14 -33 -37 -42 -52 -10 -16 -23 -28 -30 -27 -9 0 -9 2 1 6 17 7
15 42 -4 50 -8 3 -27 -1 -41 -8 -21 -11 -27 -12 -31 -1 -3 9 -12 4 -27 -14
-13 -15 -28 -23 -34 -20 -6 4 -34 -9 -62 -29 -27 -19 -55 -33 -61 -29 -6 4
-16 0 -22 -8 -6 -8 -19 -17 -28 -21 -10 -3 -18 -13 -18 -22 0 -9 -9 -33 -20
-55 -11 -22 -20 -46 -20 -54 0 -9 -13 -38 -30 -64 -16 -27 -30 -58 -30 -68 0
-21 -39 -77 -40 -57 0 6 5 15 10 18 12 8 13 135 1 135 -12 0 -21 -26 -21 -60
0 -15 -7 -33 -15 -40 -12 -10 -15 -7 -21 15 -5 20 -9 24 -16 13 -6 -9 -7 -5
-3 12 4 14 13 30 21 36 8 6 14 23 14 38 0 23 -4 27 -22 24 -15 -2 -24 -11 -26
-25 -3 -23 -22 -33 -22 -12 0 6 -9 8 -20 4 -17 -6 -20 -2 -20 29 0 48 -9 66
-37 77 -23 8 -23 10 -7 34 11 18 14 35 9 65 -6 36 -25 67 -25 41 0 -6 -9 -11
-20 -11 -11 0 -20 -7 -20 -15 0 -8 -7 -15 -16 -15 -13 0 -15 7 -11 28 3 15 0
38 -7 51 -10 17 -11 35 -4 64 5 22 6 42 3 45 -3 3 -5 -2 -5 -10 0 -15 -30 -29
-76 -34 -32 -4 -48 38 -32 82 14 40 4 56 -18 26 -24 -35 -37 -27 -31 21 3 23
3 34 0 25 -2 -10 -10 -18 -16 -18 -8 0 -11 19 -9 60 3 39 0 60 -7 60 -6 0 -11
-4 -11 -10 0 -9 -39 -34 -45 -28 -2 2 0 21 4 43 6 35 2 47 -27 94 -26 41 -33
61 -30 89 4 34 4 34 -10 14 -22 -34 -32 -26 -32 26 0 30 -7 58 -20 77 -12 18
-20 47 -20 71 0 42 -24 104 -41 104 -5 0 -9 16 -9 35 0 19 -4 43 -10 53 -38
69 -60 137 -55 170 3 25 3 31 -3 17 -8 -17 -10 -16 -17 10 -4 17 -9 71 -11
120 -2 50 -7 144 -11 210 -4 87 -1 162 12 269 9 81 15 161 11 177 -8 42 7 36
47 -18z m2552 -23 c3 -5 1 -10 -4 -10 -6 0 -11 5 -11 10 0 6 2 10 4 10 3 0 8
-4 11 -10z m-2305 -80 c0 -36 -2 -36 -40 -8 -39 28 -38 38 5 38 32 0 35 -2 35
-30z m1355 -667 c-34 -53 -142 -150 -195 -176 -56 -28 -90 -34 -90 -17 0 6 11
10 25 10 14 0 25 5 25 10 0 6 9 10 20 10 11 0 20 3 20 8 0 4 12 13 28 20 15 7
61 47 102 90 41 43 77 76 79 75 2 -1 -4 -15 -14 -30z m-300 -213 c4 -6 -8 -10
-29 -10 -20 0 -36 5 -36 10 0 6 13 10 29 10 17 0 33 -4 36 -10z m1750 -20 c4
-6 -12 -10 -42 -9 -36 0 -43 3 -28 9 28 12 63 12 70 0z m120 -20 c14 -6 0 -9
-45 -8 -47 0 -58 2 -40 8 33 11 60 11 85 0z m-1575 -450 c0 -5 -5 -10 -11 -10
-5 0 -7 5 -4 10 3 6 8 10 11 10 2 0 4 -4 4 -10z m115 -13 c11 -12 11 -19 -2
-46 -11 -21 -19 -29 -26 -22 -7 7 -6 15 3 26 7 8 10 24 7 35 -6 23 -1 25 18 7z
m-1748 -229 c-3 -7 -5 -2 -5 12 0 14 2 19 5 13 2 -7 2 -19 0 -25z m3252 -224
c6 -15 10 -29 7 -31 -7 -7 -30 18 -39 40 -11 28 18 20 32 -9z m-69 -9 c0 -8
-4 -17 -10 -20 -5 -3 -10 -2 -10 4 0 5 -3 17 -6 25 -5 12 -2 15 10 10 9 -3 16
-12 16 -19z m-2440 -339 c0 -8 -4 -18 -10 -21 -5 -3 -10 3 -10 14 0 12 5 21
10 21 6 0 10 -6 10 -14z m1700 -31 c48 -7 102 -25 110 -35 3 -4 29 -19 58 -33
38 -19 69 -27 108 -27 39 0 56 -4 60 -15 4 -8 13 -15 21 -15 25 0 71 -29 78
-50 5 -17 15 -20 60 -20 49 0 55 -3 88 -39 19 -21 48 -44 65 -52 21 -9 32 -22
36 -44 3 -16 8 -41 12 -55 7 -22 6 -23 -8 -12 -29 23 -31 -6 -4 -53 31 -51 32
-56 9 -48 -17 7 -17 6 4 -44 3 -7 0 -13 -6 -13 -6 0 -11 5 -11 11 0 6 -7 8
-16 5 -8 -3 -12 -2 -9 4 3 6 -5 14 -19 20 -14 5 -26 14 -26 20 0 5 -7 10 -15
10 -19 0 -19 -15 1 -45 13 -21 14 -25 2 -25 -8 0 -19 5 -26 12 -9 9 -12 7 -12
-10 0 -30 -15 -27 -40 8 -12 17 -26 30 -31 30 -16 0 -10 -26 11 -45 11 -10 20
-23 20 -30 0 -7 9 -20 20 -30 11 -10 20 -15 20 -11 0 4 11 -6 25 -23 14 -16
31 -28 38 -25 7 2 30 -17 53 -43 56 -66 58 -71 29 -65 -14 2 -25 9 -25 14 0
18 -31 40 -50 35 -11 -3 -26 3 -35 13 -9 10 -23 16 -30 13 -8 -2 -20 5 -27 16
-7 12 -23 21 -35 21 -13 0 -23 6 -23 14 0 14 -59 41 -68 31 -8 -7 29 -45 44
-45 7 0 10 -8 7 -20 -4 -14 0 -20 11 -20 9 0 20 -8 23 -17 4 -10 13 -24 20
-31 7 -7 13 -19 13 -25 0 -6 -7 -1 -16 11 -8 12 -22 22 -30 22 -8 0 -17 7 -20
15 -4 8 -13 15 -21 15 -8 0 -12 4 -9 9 8 13 -21 34 -39 28 -16 -7 -75 38 -75
56 0 14 -54 67 -68 67 -6 0 -14 9 -17 20 -4 11 -11 18 -16 15 -5 -4 -9 -1 -9
5 0 7 8 9 23 5 37 -12 41 -11 45 12 2 12 -5 27 -16 35 -23 16 -35 68 -16 68
23 0 18 77 -5 90 -29 15 -41 12 -41 -10 0 -25 -17 -26 -24 -2 -5 16 -87 82
-102 82 -3 0 -13 -7 -21 -16 -15 -15 -18 -14 -30 9 -8 16 -25 28 -45 32 -18 4
-38 11 -44 16 -6 5 -42 11 -80 13 -38 3 -79 8 -90 11 -13 4 -25 2 -29 -5 -5
-8 -12 -7 -25 5 -14 13 -23 13 -46 4 -41 -16 -77 -19 -91 -7 -15 12 -48 7 -47
-7 3 -22 -60 -115 -78 -115 -5 0 -8 7 -8 15 0 8 7 15 15 15 16 0 21 25 7 34
-10 6 -39 -26 -44 -49 -3 -20 -34 -43 -43 -33 -4 3 -1 16 5 28 13 24 6 85 -11
95 -5 4 -24 -9 -42 -28 -18 -18 -40 -37 -49 -40 -10 -4 -18 -14 -18 -24 -1
-20 -43 -73 -58 -73 -5 0 -9 -22 -9 -50 0 -27 4 -50 7 -50 3 0 16 14 28 30 24
33 42 39 42 15 0 -8 -4 -15 -10 -15 -5 0 -10 -7 -10 -15 0 -29 -72 -143 -105
-167 -5 -4 -6 -10 -2 -14 4 -4 21 7 37 25 17 17 34 30 38 27 4 -2 19 12 32 32
25 37 52 63 58 57 6 -6 -22 -75 -30 -75 -4 0 -8 -6 -8 -13 0 -7 -12 -30 -26
-50 -28 -42 -25 -63 4 -29 11 12 22 19 25 16 9 -9 -4 -34 -18 -34 -18 0 -58
-48 -79 -95 -13 -31 -34 -110 -30 -115 8 -8 34 31 34 51 0 16 5 19 63 38 30
10 29 13 11 -49 -4 -14 -17 -39 -30 -56 -13 -17 -24 -36 -24 -41 0 -11 -29
-27 -42 -25 -5 1 -8 -3 -8 -8 0 -18 -39 -50 -55 -44 -20 8 -20 62 1 102 19 38
11 80 -12 61 -19 -16 -30 -4 -14 16 14 17 8 31 -10 20 -7 -4 -10 -19 -7 -33 5
-29 -21 -122 -35 -122 -14 0 -9 44 8 69 16 22 16 25 0 52 -19 32 -15 57 16
102 11 16 19 30 17 32 -7 7 -37 -21 -40 -37 -4 -15 -6 -15 -23 -2 -17 12 -18
16 -6 40 11 20 12 29 2 44 -7 11 -12 28 -12 37 -1 19 -22 53 -34 53 -3 0 -6
-17 -6 -39 0 -48 -23 -72 -40 -42 -6 12 -16 20 -23 18 -8 -1 -13 17 -15 56 -2
35 1 57 8 57 14 0 13 47 -1 56 -16 9 -30 -18 -17 -33 7 -9 7 -13 0 -13 -6 0
-13 6 -16 13 -6 16 -56 -41 -56 -65 0 -9 -5 -20 -10 -23 -8 -5 -10 21 -7 82 6
109 39 218 77 255 41 39 89 66 109 61 12 -3 26 6 41 26 12 17 36 39 53 48 18
9 37 23 44 32 11 14 12 14 13 -3 0 -13 5 -16 18 -11 31 13 66 23 122 36 55 11
99 31 132 58 9 7 32 17 50 21 40 9 514 5 578 -5z m57 -307 c-3 -7 -5 -2 -5 12
0 14 2 19 5 13 2 -7 2 -19 0 -25z m173 -74 c0 -8 -4 -14 -10 -14 -5 0 -10 9
-10 21 0 11 5 17 10 14 6 -3 10 -13 10 -21z m552 -61 c18 -16 24 -33 11 -33
-10 1 -46 50 -37 50 4 0 16 -7 26 -17z m-622 -25 c0 -16 -3 -19 -11 -11 -6 6
-8 16 -5 22 11 17 16 13 16 -11z m-110 -169 c0 -6 -4 -7 -10 -4 -5 3 -10 11
-10 16 0 6 5 7 10 4 6 -3 10 -11 10 -16z m-91 -35 c11 7 16 -6 5 -17 -10 -10
-34 5 -34 22 0 13 2 13 9 2 5 -7 14 -10 20 -7z m121 6 c0 -5 -4 -10 -10 -10
-5 0 -10 5 -10 10 0 6 5 10 10 10 6 0 10 -4 10 -10z m-85 -10 c3 -5 1 -10 -4
-10 -6 0 -11 5 -11 10 0 6 2 10 4 10 3 0 8 -4 11 -10z m228 -43 c4 3 13 -2 21
-12 12 -17 12 -21 -3 -32 -10 -6 -27 -10 -38 -7 -16 5 -21 14 -21 41 0 32 1
33 17 19 10 -9 21 -13 24 -9z m110 -54 c-16 -12 -15 -14 3 -28 18 -14 18 -14
0 -15 -10 0 -30 12 -44 27 -22 24 -23 28 -9 31 10 2 17 9 16 15 -4 37 3 40 26
12 23 -28 24 -31 8 -42z m-185 -6 c7 -8 7 -18 1 -27 -7 -12 -10 -11 -15 6 -4
15 -11 20 -25 17 -10 -3 -19 0 -19 6 0 15 45 14 58 -2z m-772 -69 c-9 -12 -16
-37 -16 -55 0 -23 -6 -33 -19 -38 -11 -3 -23 -16 -27 -28 -8 -25 -55 -87 -66
-87 -16 0 -7 31 18 73 15 23 30 44 33 47 10 8 51 67 51 74 0 3 -7 6 -15 6 -8
0 -15 -7 -15 -15 0 -8 -4 -15 -10 -15 -13 0 -13 3 2 35 6 14 19 25 30 25 10 0
23 9 30 20 l13 21 3 -20 c2 -12 -4 -31 -12 -43z m1118 35 c11 -15 24 -34 27
-43 10 -25 -40 -19 -70 8 -24 22 -24 23 -5 42 24 24 23 25 48 -7z m-284 7 c0
-5 -4 -10 -10 -10 -5 0 -10 5 -10 10 0 6 5 10 10 10 6 0 10 -4 10 -10z m205 0
c3 -5 -1 -10 -9 -10 -9 0 -16 5 -16 10 0 6 4 10 9 10 6 0 13 -4 16 -10z m-884
-108 c-6 -2 -11 -19 -11 -37 0 -36 -18 -85 -31 -85 -4 0 -15 -20 -25 -45 -9
-25 -20 -45 -24 -45 -9 0 -1 42 9 50 14 12 31 51 31 72 0 13 7 32 15 42 8 10
12 22 10 27 -3 4 -1 10 5 14 5 3 10 21 10 40 0 59 15 75 18 20 2 -29 -1 -51
-7 -53z m570 71 c37 -27 49 -43 30 -43 -5 0 -14 7 -21 15 -7 8 -20 15 -29 15
-18 0 -41 18 -41 32 0 15 22 8 61 -19z m-631 -69 c0 -2 -11 -4 -25 -4 -20 0
-25 -5 -25 -25 0 -14 -4 -25 -10 -25 -5 0 -10 7 -10 15 0 8 -4 15 -10 15 -18
0 -10 18 21 50 l31 31 14 -27 c8 -14 14 -28 14 -30z m755 36 c10 -11 14 -20 8
-20 -5 0 -20 9 -33 20 -16 14 -19 20 -8 20 8 0 23 -9 33 -20z m110 -20 c3 -5
1 -10 -4 -10 -6 0 -11 5 -11 10 0 6 2 10 4 10 3 0 8 -4 11 -10z m-1035 -10 c0
-5 -5 -10 -11 -10 -5 0 -7 5 -4 10 3 6 8 10 11 10 2 0 4 -4 4 -10z m884 -6 c9
-24 7 -28 -9 -14 -17 14 -20 30 -6 30 5 0 12 -7 15 -16z m-1224 -32 c0 -5 -7
-17 -15 -28 -15 -19 -20 -8 -9 20 6 17 24 22 24 8z m1290 -96 c0 -20 0 -20
-15 0 -8 10 -14 28 -14 39 0 20 0 20 14 1 8 -11 15 -29 15 -40z m1194 -216
c15 -317 25 -466 36 -530 13 -71 5 -401 -10 -410 -16 -10 -45 -260 -30 -260 6
0 10 6 10 12 0 35 33 238 45 272 12 38 13 38 20 15 14 -43 9 -182 -10 -264
-36 -164 -127 -334 -236 -444 -46 -46 -140 -117 -214 -164 -11 -6 -45 -37 -76
-67 -80 -77 -109 -100 -148 -117 -19 -8 -59 -33 -90 -56 -31 -23 -63 -46 -72
-52 -191 -117 -386 -215 -466 -237 -18 -4 -50 -13 -70 -19 -108 -31 -456 -48
-598 -29 -197 27 -308 46 -385 67 -79 22 -299 136 -353 183 -25 22 -47 40 -50
40 -3 0 -33 18 -66 40 -33 22 -63 40 -66 40 -15 0 -141 93 -216 160 -114 101
-259 249 -259 262 0 7 -8 21 -19 32 -45 50 -105 262 -106 373 0 34 -4 65 -9
70 -5 4 -6 -3 -2 -17 5 -19 5 -21 -3 -9 -12 19 -15 101 -6 146 4 19 15 33 26
36 12 3 19 14 19 28 0 13 9 53 19 89 51 172 61 277 61 615 0 176 4 326 9 333
6 11 10 11 19 0 16 -20 52 -107 52 -127 0 -10 9 -26 20 -36 11 -10 20 -24 20
-31 0 -23 41 -93 65 -112 12 -10 26 -29 30 -42 4 -14 17 -40 29 -57 16 -26 28
-33 54 -33 28 0 32 -3 32 -25 0 -18 21 -47 69 -98 145 -149 161 -169 161 -189
0 -17 -2 -18 -15 -8 -22 19 -27 8 -9 -19 13 -17 22 -21 42 -16 22 5 24 4 13
-8 -14 -18 -1 -30 22 -21 10 3 24 -6 37 -24 15 -20 34 -32 59 -36 43 -7 81
-31 81 -52 0 -12 -4 -12 -20 -4 -11 6 -20 7 -20 3 0 -12 81 -97 112 -117 15
-10 30 -25 33 -34 3 -10 18 -25 35 -34 36 -20 41 -43 8 -33 -13 4 -36 13 -52
21 -49 24 -40 8 16 -26 29 -18 76 -47 103 -65 28 -18 60 -36 73 -40 12 -3 35
-18 49 -31 19 -17 34 -23 49 -20 26 7 43 -11 20 -20 -32 -12 -16 -27 24 -21
21 3 40 1 42 -4 2 -6 30 -12 63 -14 l60 -5 -40 14 c-23 7 -41 20 -43 30 -3 15
0 17 20 10 12 -4 39 -10 58 -14 26 -4 34 -10 32 -23 -2 -12 4 -17 18 -17 12 0
40 -9 62 -20 23 -11 56 -20 72 -20 48 0 65 -16 27 -25 -17 -3 -31 -12 -31 -19
0 -23 13 -26 37 -10 18 11 36 14 64 9 31 -5 39 -4 39 8 0 15 7 19 64 32 36 8
90 51 76 60 -18 11 -10 25 15 25 15 0 29 8 36 23 23 42 95 104 154 131 17 8
33 18 38 22 12 12 47 15 47 4 0 -6 -11 -15 -25 -20 -39 -15 -31 -34 12 -27 20
4 39 10 42 14 10 13 90 63 101 63 6 0 13 7 16 15 4 10 13 13 26 9 11 -3 18 -2
15 3 -3 4 1 17 8 27 14 18 16 18 50 2 35 -17 75 -14 75 5 0 5 7 9 15 9 8 0 15
5 15 10 0 6 5 10 11 10 6 0 28 18 50 40 34 34 37 40 19 40 -21 0 -29 20 -7 20
6 0 20 12 31 26 15 22 16 28 5 35 -12 8 -11 12 3 23 10 7 15 15 12 18 -2 3 7
3 21 1 17 -4 27 0 32 13 6 17 84 104 176 195 26 26 47 51 47 56 0 5 14 19 30
31 17 13 30 31 30 41 0 10 7 24 15 31 8 7 14 20 13 29 -2 9 3 15 10 13 6 -1
11 3 10 10 -2 7 3 12 9 13 13 0 63 67 63 83 0 5 11 19 24 32 14 12 28 35 31
51 4 15 14 38 24 51 29 37 52 91 56 127 4 41 22 62 35 41 6 -9 5 -19 0 -24 -6
-6 -10 -24 -9 -40 0 -17 3 -24 6 -16 3 8 11 29 18 45 12 28 23 59 39 109 6 19
8 18 20 -5 8 -15 16 -89 20 -189z m-3021 -252 c7 -25 0 -41 -14 -33 -12 8 -12
55 0 55 5 0 11 -10 14 -22z m2253 -525 c-10 -10 -19 5 -10 18 6 11 8 11 12 0
2 -7 1 -15 -2 -18z m-63 -41 c-7 -7 -13 -17 -13 -21 0 -15 -80 -92 -90 -86 -6
4 2 19 20 36 17 17 42 51 57 76 22 38 28 43 33 27 4 -10 1 -24 -7 -32z m-1499
-158 c3 -8 0 -14 -7 -14 -14 0 -37 20 -37 31 0 12 38 -2 44 -17z m61 -44 c-3
-6 6 -15 22 -21 16 -7 23 -13 15 -16 -7 -3 -24 2 -37 11 -13 9 -31 13 -39 10
-9 -3 -24 -3 -33 2 -13 6 -6 10 27 14 25 4 46 8 48 8 2 1 0 -3 -3 -8z m2148
-872 c-13 -120 -13 -118 -55 -148 -56 -41 -74 -40 -52 1 10 19 14 49 12 77 -3
44 -1 47 40 79 24 18 47 31 51 29 4 -3 6 -20 4 -38z m-3112 -80 l21 -28 -31
-35 c-16 -19 -32 -31 -35 -27 -9 14 -18 121 -11 132 8 13 27 0 56 -42z m2953
-10 c-3 -18 -13 -43 -22 -56 -13 -20 -17 -21 -35 -9 -31 21 -31 32 3 66 43 42
64 42 54 -1z m-146 -165 c3 -53 0 -64 -20 -83 -33 -32 -95 -70 -113 -70 -18 0
-20 45 -4 87 12 33 109 135 124 130 5 -2 11 -31 13 -64z m282 28 c0 -40 -54
-70 -90 -51 -26 14 -25 14 31 44 56 30 59 30 59 7z m-2702 -87 c26 -40 27 -50
7 -58 -34 -13 -65 27 -65 85 0 25 2 28 18 18 10 -6 28 -26 40 -45z m2586 10
c8 -21 -11 -44 -35 -44 -29 0 -34 22 -9 42 27 22 36 23 44 2z m-366 -42 c5
-16 -80 -102 -101 -102 -9 0 -19 9 -22 21 -8 25 15 53 65 80 38 20 51 20 58 1z
m-201 -89 c9 -23 -52 -73 -89 -73 -42 0 -36 31 14 63 49 31 66 34 75 10z
m-1397 -23 c0 -5 -4 -10 -10 -10 -5 0 -10 5 -10 10 0 6 5 10 10 10 6 0 10 -4
10 -10z m1570 -18 c0 -10 -26 -43 -58 -75 -49 -49 -63 -57 -95 -57 -20 0 -37
5 -37 10 0 29 56 91 103 115 60 30 87 32 87 7z m-1415 -9 c41 -5 74 -23 41
-23 -29 0 -110 22 -121 33 -7 6 -2 7 15 2 14 -4 43 -9 65 -12z m-402 -69 c2
-41 5 -49 25 -54 25 -6 31 -26 7 -24 -8 0 -30 2 -47 3 -43 2 -76 29 -84 66 -5
30 -4 32 43 46 26 8 49 14 51 13 2 -1 4 -23 5 -50z m582 36 c4 -6 -7 -10 -24
-10 -17 0 -31 5 -31 10 0 6 11 10 24 10 14 0 28 -4 31 -10z m-1028 -85 c8 -9
13 -18 11 -21 -3 -2 -13 5 -23 16 -21 23 -11 27 12 5z m2448 -5 c3 -6 -1 -7
-9 -4 -18 7 -21 14 -7 14 6 0 13 -4 16 -10z"/>
<path d="M3200 7569 c0 -5 5 -7 10 -4 6 3 10 8 10 11 0 2 -4 4 -10 4 -5 0 -10
-5 -10 -11z"/>
<path d="M3145 7000 c-3 -5 -1 -10 4 -10 6 0 11 5 11 10 0 6 -2 10 -4 10 -3 0
-8 -4 -11 -10z"/>
<path d="M7091 6974 c0 -11 3 -14 6 -6 3 7 2 16 -1 19 -3 4 -6 -2 -5 -13z"/>
<path d="M4035 6560 l-40 -6 35 -6 c88 -15 179 0 99 16 -34 6 -34 6 -94 -4z"/>
<path d="M4313 6554 c8 -8 117 -23 230 -30 66 -5 87 -3 87 6 0 9 -9 11 -30 7
-16 -4 -44 0 -64 8 -35 15 -237 22 -223 9z"/>
<path d="M3883 6533 c9 -2 23 -2 30 0 6 3 -1 5 -18 5 -16 0 -22 -2 -12 -5z"/>
<path d="M4160 6164 c-110 -12 -219 -39 -272 -65 -21 -11 -42 -19 -48 -19 -19
0 -120 -80 -120 -96 0 -22 27 -28 71 -15 36 11 44 10 75 -8 l34 -20 0 33 c0
26 8 41 31 60 31 26 49 27 49 1 0 -25 67 -84 103 -90 35 -7 107 -3 179 10 50
9 98 63 98 110 0 47 13 51 55 14 47 -42 60 -66 44 -85 -10 -12 -4 -14 34 -14
38 0 49 -5 72 -31 37 -45 42 -28 6 24 -37 54 -149 167 -166 167 -7 0 -18 6
-24 14 -16 19 -105 23 -221 10z m15 -54 c3 -5 -3 -10 -14 -10 -12 0 -21 5 -21
10 0 6 6 10 14 10 8 0 18 -4 21 -10z"/>
<path d="M2603 5978 c4 -29 10 -73 15 -98 18 -88 63 -253 68 -248 1 2 7 43 12
91 6 55 16 95 26 106 23 25 20 49 -11 90 -36 50 -95 111 -106 111 -5 0 -7 -23
-4 -52z"/>
<path d="M2768 4894 c6 -11 19 -27 28 -35 16 -13 16 -12 6 7 -6 11 -19 27 -28
35 -16 13 -16 12 -6 -7z"/>
<path d="M5650 3360 c0 -5 5 -10 11 -10 5 0 7 5 4 10 -3 6 -8 10 -11 10 -2 0
-4 -4 -4 -10z"/>
<path d="M5680 3316 c0 -14 5 -26 10 -26 6 0 10 9 10 19 0 11 -4 23 -10 26 -6
4 -10 -5 -10 -19z"/>
<path d="M4495 3139 c-11 -17 1 -21 15 -4 8 9 8 15 2 15 -6 0 -14 -5 -17 -11z"/>
<path d="M4556 3091 c-11 -12 -16 -24 -13 -27 8 -9 39 24 35 37 -2 6 -12 1
-22 -10z"/>
<path d="M4481 2986 c-8 -9 -11 -19 -7 -23 9 -9 29 13 24 27 -2 8 -8 7 -17 -4z"/>
<path d="M5595 3040 c-3 -6 1 -7 9 -4 18 7 21 14 7 14 -6 0 -13 -4 -16 -10z"/>
<path d="M6676 2474 c-4 -10 -1 -14 6 -12 15 5 23 28 10 28 -5 0 -13 -7 -16
-16z"/>
<path d="M3396 1577 c-9 -33 -7 -85 3 -91 12 -8 21 18 21 64 0 44 -15 61 -24
27z"/>
<path d="M4300 1596 c0 -2 7 -9 15 -16 13 -11 14 -10 9 4 -5 14 -24 23 -24 12z"/>
<path d="M5534 1465 c-53 -27 -72 -59 -31 -53 12 2 26 13 32 25 5 12 16 24 25
25 8 2 11 6 5 9 -5 3 -20 1 -31 -6z"/>
<path d="M5680 1429 c0 -5 5 -7 10 -4 6 3 10 8 10 11 0 2 -4 4 -10 4 -5 0 -10
-5 -10 -11z"/>
<path d="M6327 362 c-10 -10 -17 -24 -17 -31 0 -16 49 20 50 37 0 17 -14 15
-33 -6z"/>
<path d="M1820 1324 c-62 -27 -80 -51 -80 -110 0 -44 5 -57 30 -84 27 -29 34
-31 72 -27 88 11 109 20 153 63 58 56 60 104 8 161 -16 18 -139 16 -183 -3z"/>
<path d="M8455 1301 c-59 -14 -80 -34 -163 -146 -4 -6 -14 -19 -22 -30 -13
-17 -13 -18 0 -10 8 5 23 19 33 32 l19 23 38 -32 c52 -45 175 -77 239 -63 57
12 80 110 40 166 -35 49 -116 76 -184 60z"/>
<path d="M8681 711 c-20 -13 1 -61 27 -61 25 0 56 35 49 55 -7 17 -53 20 -76
6z"/>
<path d="M7595 460 c-6 -10 53 -45 63 -36 8 8 -28 46 -44 46 -7 0 -15 -4 -19
-10z"/>
<path d="M7865 450 c3 -5 8 -10 11 -10 2 0 4 5 4 10 0 6 -5 10 -11 10 -5 0 -7
-4 -4 -10z"/>
<path d="M2344 269 c-11 -23 -13 -34 -5 -42 8 -8 11 -5 11 10 0 11 7 26 15 33
17 14 20 30 5 30 -5 0 -17 -14 -26 -31z"/>
<path d="M2640 265 c0 -8 5 -15 10 -15 6 0 10 7 10 15 0 8 -4 15 -10 15 -5 0
-10 -7 -10 -15z"/>
<path d="M2680 270 c0 -5 5 -10 10 -10 6 0 10 5 10 10 0 6 -4 10 -10 10 -5 0
-10 -4 -10 -10z"/>
<path d="M2730 216 c0 -15 -5 -17 -27 -13 -21 4 -38 -4 -81 -39 -30 -24 -57
-44 -60 -44 -4 0 -24 -16 -46 -35 -42 -38 -47 -40 -63 -24 -6 6 -21 16 -33 23
-12 6 -33 31 -46 55 -24 46 -28 44 -37 -21 -5 -32 -3 -37 19 -42 13 -4 24 -12
24 -19 0 -6 11 -22 25 -35 32 -30 112 -28 129 3 22 40 48 76 52 72 2 -2 -3
-23 -11 -47 -19 -54 -19 -52 7 -48 17 2 25 13 31 41 10 43 65 87 108 87 40 0
79 -45 79 -91 0 -39 0 -39 40 -39 38 0 40 2 40 30 0 30 -7 51 -47 136 -28 62
-40 73 -75 71 -20 -2 -28 -7 -28 -21z"/>
<path d="M8370 161 l-25 -7 32 -17 c31 -16 33 -16 42 2 16 30 2 36 -49 22z"/>
<path d="M8565 131 c-3 -6 -17 -11 -31 -11 -13 0 -24 -4 -24 -10 0 -17 60 -12
67 5 7 19 -2 31 -12 16z"/>
<path d="M1792 118 c5 -15 28 -23 28 -10 0 5 -7 13 -16 16 -10 4 -14 1 -12 -6z"/>
<path d="M5368 49 c-10 -5 -18 -18 -18 -27 0 -13 11 -18 46 -20 44 -3 45 -2
33 20 -20 37 -33 44 -61 27z"/>
</g>
</svg>
