<?xml version="1.0" standalone="no"?>
<!DOCTYPE svg PUBLIC "-//W3C//DTD SVG 20010904//EN"
 "http://www.w3.org/TR/2001/REC-SVG-20010904/DTD/svg10.dtd">
<svg version="1.0" xmlns="http://www.w3.org/2000/svg"
 width="512.000000pt" height="512.000000pt" viewBox="0 0 512.000000 512.000000"
 preserveAspectRatio="xMidYMid meet">
<metadata>
Created by potrace 1.14, written by Peter Selinger 2001-2017
</metadata>
<g transform="translate(0.000000,512.000000) scale(0.100000,-0.100000)"
fill="#000000" stroke="none">
<path d="M578 4995 c-265 -65 -465 -256 -550 -525 l-23 -75 0 -1835 0 -1835
23 -75 c80 -254 265 -439 517 -517 57 -17 143 -18 2020 -18 l1960 0 79 28
c242 85 410 261 488 507 l23 75 0 1835 0 1835 -23 75 c-82 263 -280 454 -537
520 -77 20 -107 20 -1999 19 -1598 -1 -1931 -3 -1978 -14z m3972 -225 c85 -33
170 -90 221 -148 58 -66 116 -191 129 -277 13 -94 13 -3474 0 -3570 -7 -47
-24 -98 -51 -153 -66 -135 -174 -229 -319 -278 -53 -18 -126 -19 -1975 -19
l-1920 0 -65 25 c-85 33 -170 90 -221 148 -63 70 -117 191 -129 287 -7 54 -10
651 -8 1830 3 1921 -2 1766 62 1896 68 138 214 247 371 279 22 4 895 7 1940 6
l1900 -1 65 -25z"/>
<path d="M1053 3069 c-67 -26 -137 -94 -171 -167 l-27 -57 0 -285 0 -285 26
-56 c33 -69 89 -127 155 -160 47 -23 58 -24 244 -24 186 0 197 1 244 24 93 46
157 130 176 233 18 93 -24 158 -100 158 -50 0 -87 -30 -101 -83 -33 -121 -43
-127 -219 -127 -143 0 -178 10 -199 57 -15 32 -15 494 0 526 21 47 56 57 199
57 176 0 186 -6 219 -127 14 -53 51 -83 101 -83 77 0 120 69 101 160 -22 104
-85 186 -177 231 -46 22 -61 24 -234 26 -166 2 -190 0 -237 -18z"/>
<path d="M1857 3070 c-38 -30 -52 -80 -33 -123 23 -55 56 -67 191 -67 l115 0
0 -375 c0 -403 2 -425 51 -459 30 -21 88 -21 118 0 49 34 51 56 51 459 l0 375
115 0 c135 0 168 12 191 67 19 43 5 93 -33 123 -25 19 -40 20 -383 20 -343 0
-358 -1 -383 -20z"/>
<path d="M2821 3074 c-49 -35 -51 -52 -51 -514 0 -462 2 -479 51 -514 13 -9
39 -16 59 -16 77 0 110 55 110 182 l0 83 123 -122 c67 -66 132 -126 144 -132
92 -47 189 50 142 142 -6 12 -68 79 -137 150 -91 91 -121 127 -107 127 38 0
125 49 169 95 63 65 89 138 84 235 -8 126 -73 221 -188 274 -52 24 -65 26
-215 26 -132 0 -165 -3 -184 -16z m345 -225 c16 -16 28 -42 31 -67 5 -37 2
-45 -30 -77 -33 -33 -38 -35 -106 -35 l-71 0 0 106 0 106 75 -4 c64 -3 79 -7
101 -29z"/>
<path d="M3659 3061 l-29 -29 0 -472 0 -472 29 -29 29 -29 255 0 c240 0 256 1
280 20 38 30 52 80 33 123 -24 60 -52 67 -246 67 l-170 0 0 386 c0 342 -2 389
-17 414 -34 58 -116 68 -164 21z"/>
</g>
</svg>
